#!OML:ASF H:\Terrain\Patient Classification 1\Walking\steve\steve.ASF
:FULLY-SPECIFIED
:DEGREES


213
root 8.2503 16.4476 10.1894 9.52433 -4.64466 -6.58698
lowerback 0.815537 4.67581 8.24537
upperback -3.11676 6.49707 1.18522
thorax -2.92963 3.04185 -3.52636
lowerneck -10.1443 -1.95296 -2.94067
upperneck 12.964 -2.59637 2.92463
head 5.6582 -1.19404 1.19675
rclavicle 4.14466e-014 1.17283e-014
rhumerus -19.5751 5.23567 -84.6603
rradius 57.1207
rwrist -12.9158
rhand -23.0939 -38.1878
rfingers 7.12502
rthumb 3.35246 -68.1412
lclavicle 4.14466e-014 1.17283e-014
lhumerus -55.1863 20.6192 62.5289
lradius 5.45887
lwrist -30.7426
lhand -24.3299 -16.2095
lfingers 7.12502
lthumb 2.15871 13.7593
rfemur -3.09805 -7.91874 29.5994
rtibia 22.3909
rfoot -7.54425 26.7851
rtoes 9.30902
lfemur -40.2396 3.67322 -13.9144
ltibia 29.6526
lfoot -18.0479 7.04027
ltoes -16.7385
214
root 8.26215 16.4453 10.4555 9.76891 -5.3793 -6.90014
lowerback 0.842592 4.91419 8.5191
upperback -3.18984 6.82709 1.12437
thorax -2.94651 3.19548 -3.74382
lowerneck -10.0812 -1.86987 -3.05034
upperneck 12.6759 -2.50172 3.20237
head 5.5592 -1.13474 1.31008
rclavicle -3.4601e-014 -3.1408e-014
rhumerus -18.7502 6.30011 -84.3905
rradius 58.8125
rwrist -12.8278
rhand -21.8498 -34.5121
rfingers 7.12502
rthumb 4.55377 -64.4432
lclavicle -3.4601e-014 -3.1408e-014
lhumerus -56.1565 20.1609 61.8483
lradius 4.8837
lwrist -29.2335
lhand -24.7174 -15.4531
lfingers 7.12502
lthumb 1.78446 14.5192
rfemur -1.56514 -7.87617 29.3837
rtibia 20.8738
rfoot -5.43246 27.4194
rtoes 12.6198
lfemur -40.3684 2.82303 -12.774
ltibia 26.6124
lfoot -18.2321 8.20932
ltoes -16.1664
215
root 8.26035 16.4234 10.7072 9.72131 -7.01259 -8.10959
lowerback 1.71463 5.43347 9.39611
upperback -3.29531 7.65633 1.29335
thorax -3.36699 3.56119 -4.14196
lowerneck -9.76425 -1.78279 -3.20669
upperneck 12.3389 -2.41392 3.58815
head 5.40371 -1.07636 1.46561
rclavicle -1.66172e-014 7.95139e-015
rhumerus -18.1629 7.22994 -84.1172
rradius 60.6323
rwrist -12.5598
rhand -22.6383 -35.7114
rfingers 7.12502
rthumb 3.79237 -65.6574
lclavicle -1.66172e-014 7.95139e-015
lhumerus -57.2043 19.5958 61.1246
lradius 4.4514
lwrist -27.5382
lhand -24.8839 -15.8829
lfingers 7.12502
lthumb 1.62369 14.0907
rfemur 0.204801 -5.33295 30.3978
rtibia 19.4805
rfoot -5.04074 26.2694
rtoes 13.0177
lfemur -40.0242 2.22296 -10.159
ltibia 23.8807
lfoot -18.9267 10.4941
ltoes -16.2144
216
root 8.30878 16.4087 10.9739 9.98634 -6.88721 -7.61296
lowerback 1.48506 5.37652 9.50543
upperback -3.40749 7.55412 0.966799
thorax -3.31274 3.50287 -4.51759
lowerneck -9.93868 -1.74621 -3.19668
upperneck 12.4591 -2.36505 3.59237
head 5.46898 -1.04957 1.46808
rclavicle -5.49143e-014 -7.35503e-015
rhumerus -17.4601 8.19545 -83.687
rradius 62.4126
rwrist -12.3185
rhand -21.4227 -34.942
rfingers 7.12502
rthumb 4.96618 -64.8638
lclavicle -5.49143e-014 -7.35503e-015
lhumerus -58.2363 19.1641 60.5378
lradius 4.19553
lwrist -25.8407
lhand -24.9738 -15.7987
lfingers 7.12502
lthumb 1.53684 14.1755
rfemur 1.61779 -6.46224 29.2499
rtibia 18.1376
rfoot -3.52934 27.084
rtoes 12.6625
lfemur -40.5684 0.813998 -10.1239
ltibia 21.5707
lfoot -19.3329 10.6819
ltoes -13.9169
217
root 8.33235 16.3844 11.2495 10.2271 -7.07002 -7.75549
lowerback 1.18385 5.48957 9.76367
upperback -3.40036 7.67435 0.925407
thorax -3.08228 3.56707 -4.66396
lowerneck -10.2023 -1.80251 -3.08501
upperneck 12.5249 -2.41856 3.34373
head 5.53196 -1.08523 1.36584
rclavicle 8.04705e-014 2.11706e-014
rhumerus -16.5678 8.9946 -83.0875
rradius 63.7434
rwrist -12.178
rhand -22.9742 -35.8387
rfingers 7.12502
rthumb 3.46804 -65.7903
lclavicle 8.04705e-014 2.11706e-014
lhumerus -59.1653 18.7616 60.151
lradius 4.03905
lwrist -23.8573
lhand -24.4088 -13.9523
lfingers 7.12502
lthumb 2.08259 16.0173
rfemur 3.13393 -6.53068 28.9603
rtibia 16.753
rfoot -2.13056 27.0594
rtoes 12.5203
lfemur -41.0883 0.350454 -9.59594
ltibia 19.9014
lfoot -19.4992 10.3742
ltoes -12.2025
